<?xml version="1.0" encoding="UTF-8"?>
<svg xmlns="http://www.w3.org/2000/svg" viewBox="0 0 220.52 35.08">
  <defs>
    <style>
      .cls-1 {
        fill: #41c2cc;
        // fill: #718096;
      }

      .cls-2 {
        fill: #013c4c;
      }

      .cls-3 {
        fill: #f58520;
      }
    </style>
  </defs>
  <g id="Layer_2" data-name="Layer 2">
    <g id="Layer_1-2" data-name="Layer 1">
      <path class="cls-1"
            d="M39.06,10.31h5.53c6.39,0,8.42,2.93,8.42,9s-1.4,9.27-8.11,9.27H39.06ZM44.9,26.62c1.67,0,3.28-.14,4.46-1.24.93-.85,1.54-2.55,1.54-5.4V18.8c0-2.19-.28-3.94-1.26-5s-2.55-1.45-4.88-1.45H41.17V26.62Z"></path>
      <path class="cls-1"
            d="M63.67,10.06c4.41,0,7.75,2.83,7.75,9.46,0,6.08-2.85,9.34-7.75,9.34s-7.79-3.34-7.79-9.34C55.88,12.89,59.25,10.06,63.67,10.06Zm0,16.8c3.75,0,5.53-2.46,5.53-6.55v-1.7c0-4.16-1.81-6.55-5.53-6.55s-5.54,2.39-5.54,6.55v1.7C58.13,24.42,59.91,26.86,63.67,26.86Z"></path>
      <path class="cls-1"
            d="M75,10.31h2.58L84,20.42c.68,1.07,1.89,3.4,2.76,5.1l.17-.06c-.14-1.83-.3-4.71-.3-5.83V10.31h2.11V28.62H86.66l-7-11c-.66-1.07-1.84-3.35-2.58-4.74H77c.06,1.06.17,3.75.17,5.23v10.5H75Z"></path>
      <path class="cls-1"
            d="M100.11,10.06c4.41,0,7.76,2.83,7.76,9.46,0,6.08-2.85,9.34-7.76,9.34s-7.78-3.34-7.78-9.34C92.33,12.89,95.7,10.06,100.11,10.06Zm0,16.8c3.76,0,5.54-2.46,5.54-6.55v-1.7c0-4.16-1.81-6.55-5.54-6.55s-5.54,2.39-5.54,6.55v1.7C94.57,24.42,96.36,26.86,100.11,26.86Z"></path>
      <path class="cls-1"
            d="M124.44,28.45l0,.17h-2.25l-3.32-7h-5.29v7h-2.11V10.31h6.91c4,0,5.78,1.94,5.78,5.56,0,2.83-1,4.72-3.15,5.43Zm-10.88-8.58h5.21c2.25,0,3.26-1.31,3.26-3.53v-.77c0-2.41-1.07-3.26-3.4-3.26h-5.07Z"></path>
      <path class="cls-2"
            d="M134.09,10.09a23.79,23.79,0,0,1,4.36.44v1.81l-.14.13a28.44,28.44,0,0,0-4.33-.38c-3.54,0-4.8.88-4.8,2.8v.35c0,1.29.47,2,2.94,2.55l2.76.66c3.29.82,4.63,2.41,4.63,5,0,3.15-1.78,5.39-7,5.39a29,29,0,0,1-5.34-.46V26.42l.11-.11a27.6,27.6,0,0,0,5.2.52c3.54,0,4.91-.71,4.91-3.17v-.33c0-1.48-.47-2.31-3.45-3l-2.8-.65C128.39,19,127,17.68,127,15.16,127,12.28,128.85,10.09,134.09,10.09Z"></path>
      <path class="cls-2"
            d="M154.72,26.62v2H142.83V10.31h11.43v2h-9.32v6h8.82v1.9h-8.82v6.44Z"></path>
      <path class="cls-2"
            d="M172.64,28.45l-.11.17h-2.11l-1.94-5h-8.25l-1.95,5h-2.11l-.11-.17,7.1-18.14h2.39Zm-4.85-6.66L166.7,19c-.8-2-1.54-4.22-2.28-6.53h-.13C163.55,14.78,162.81,17,162,19l-1.1,2.79Z"></path>
      <path class="cls-2"
            d="M188.1,28.45l0,.17h-2.25l-3.31-7h-5.29v7h-2.11V10.31H182c4,0,5.78,1.94,5.78,5.56,0,2.83-1,4.72-3.15,5.43Zm-10.88-8.58h5.21c2.24,0,3.26-1.31,3.26-3.53v-.77c0-2.41-1.07-3.26-3.4-3.26h-5.07Z"></path>
      <path class="cls-2"
            d="M199.09,10.09a16.44,16.44,0,0,1,4.27.52V12.5l-.11.11a17.55,17.55,0,0,0-4.05-.49c-2.17,0-3.57.41-4.55,1.26S193,16.5,193,19v.85c0,2.63.63,4.9,1.75,5.83a6.42,6.42,0,0,0,4.19,1.13,18.11,18.11,0,0,0,4.77-.72l.14.11V28a14.18,14.18,0,0,1-5.1.79c-5.73,0-8-3.2-8-9.56S193.58,10.09,199.09,10.09Z"></path>
      <path class="cls-2"
            d="M220.52,10.31V28.62h-2.11V20.26h-9.24v8.36h-2.11V10.31h2.11v8h9.24v-8Z"></path>
      <path class="cls-3"
            d="M26.51,17.19C26.51,5.57,22.66,0,10.52,0H0L25.65,25.78A34.26,34.26,0,0,0,26.51,17.19Z"></path>
      <path class="cls-1"
            d="M26.51,17.89c0,11.62-3.85,17.19-16,17.19H0L25.65,9.3A34.26,34.26,0,0,1,26.51,17.89Z"></path>
      <polyline class="cls-2" points="8.06 8.1 8.06 35.08 0 35.08 0 0"></polyline>
    </g>
  </g>
</svg>