<svg
  width="70"
  height="58"
  viewBox="0 0 88 70"
  fill="white"
  color="#2B3070"
  xmlns="http://www.w3.org/2000/svg"
>
  <path
    d="M82.469 59.917C76.125 59.665 69.6 55.78 64.096 48.975L57.112 56.037C64.309 64.563 73.141 69.438 82.079 69.791C82.147 69.793 82.212 69.794 82.278 69.794C84.917 69.794 87.106 67.709 87.212 65.049C87.318 62.321 85.195 60.024 82.469 59.917Z"
    fill="url(#paint0_linear)"
  />
  <path
    d="M72.35 9.742C69.85 3.708 64.963 0.247002 58.942 0.247002C51.53 0.247002 46.121 5.943 44.473 15.481C42.821 25.051 45.2 36.434 50.63 46.468C54.563 43.555 57.332 37.628 57.337 37.616C54.38 30.65 53.154 23.282 54.211 17.163C54.494 15.513 55.68 10.129 58.941 10.129C60.362 10.129 61.981 10.532 63.22 13.523C66.583 21.643 63.017 39.234 54.062 48.19C44.191 58.064 38.148 41.032 35.802 30.488C35.274 28.094 33.067 26.455 30.626 26.628C28.181 26.803 26.232 28.747 26.05 31.191C26.042 31.28 25.337 40.219 21.562 48.207C17.797 56.166 12.656 60.035 5.842 60.035C3.114 60.035 0.902 62.248 0.902 64.975C0.902 67.704 3.115 69.917 5.842 69.917C16.561 69.917 25.085 63.869 30.494 52.429C31.061 51.229 31.571 50.019 32.029 48.818C35.544 55.498 39.728 59.579 44.507 60.972C48.301 62.083 54.251 61.975 61.05 55.178C72.196 44.031 77.584 22.375 72.35 9.742Z"
    fill="url(#paint1_linear)"
  />
  <defs>
    <linearGradient
      id="paint0_linear"
      x1="102.661"
      y1="63.4665"
      x2="88.4309"
      y2="33.387"
      gradientUnits="userSpaceOnUse"
    >
      <stop offset="0.245" stop-color="#FBC75F" />
      <stop offset="0.4032" stop-color="#FAC45F" />
      <stop offset="0.536" stop-color="#F9B95D" />
      <stop offset="0.6595" stop-color="#F6A85C" />
      <stop offset="0.7775" stop-color="#F38F59" />
      <stop offset="0.8905" stop-color="#EE7055" />
      <stop offset="1" stop-color="#E84A51" />
    </linearGradient>
    <linearGradient
      id="paint1_linear"
      x1="0.9023"
      y1="69.9173"
      x2="74.3638"
      y2="69.9173"
      gradientUnits="userSpaceOnUse"
    >
      <stop offset="0.0997" stop-color="#D83445" />
      <stop offset="0.4013" stop-color="#EE6F55" />
      <stop offset="1" stop-color="#FBC75F" />
    </linearGradient>
  </defs>
</svg>
